<?xml version="1.0" encoding="UTF-8"?>
<svg width="60px" height="72px" viewBox="0 0 60 72" version="1.1" xmlns="http://www.w3.org/2000/svg" xmlns:xlink="http://www.w3.org/1999/xlink">
    <!-- Generator: Sketch 42 (36781) - http://www.bohemiancoding.com/sketch -->
    <title>we/multiculti</title>
    <desc>Created with Sketch.</desc>
    <defs></defs>
    <g id="V12" stroke="none" stroke-width="1" fill="none" fill-rule="evenodd" stroke-linecap="round" stroke-linejoin="round">
        <g id="ucreate-v12-Final" transform="translate(-1039.000000, -1682.000000)" stroke="#0EDBF2">
            <g id="we/multiculti" transform="translate(1033.000000, 1670.000000)">
                <g id="Group">
                    <path d="M20.4,56.4 C24,53.1 28.8,53.7 30.9,53.7 C33,53.7 34.2,50.7 35.7,51.9 C37.2,53.1 36,55.5 37.8,57.3 C39.6,59.1 43.8,63.9 43.8,63.9" id="Shape" stroke-width="3"></path>
                    <path d="M45.3,14.4 C45.3,14.4 47.7,23.4 45.9,23.4 C44.1,23.4 41.1,24 43.8,25.2 C45.9,26.1 48,26.4 50.1,26.1 C50.1,28.2 50.7,30 51.6,31.8 C52.8,33 51.3,34.2 53.1,36 C54.9,37.8 52.5,42.3 52.5,42.3 C51,42.3 49.5,41.7 48.3,40.8 C47.1,39.6 48,39 46.8,38.1 C45.6,37.2 44.4,37.2 43.2,36 C42,34.8 37.8,38.4 36.9,39.3 C36,40.2 34.5,40.8 33.3,39.9 C32.1,39 30.3,37.8 30.3,35.7 C30.6,33.6 31.5,31.5 33,30.3 C34.8,28.5 35.1,29.7 37.2,27.6 C39.3,25.5 41.7,23.7 39.9,22.2 C38.1,20.7 34.5,23.4 32.1,25.5 C29.7,27.6 30.3,30 28.8,31.8 C27.3,31.2 27,27.9 27.6,25.8 C28.2,23.7 27.6,22.8 26.1,22.8 C27,20.1 28.2,17.4 30,15" id="Shape" stroke-width="3"></path>
                    <path d="M21,76.5 L51,76.5 C53.4,76.5 55.5,78.6 55.5,81 L55.5,82.5 L55.5,82.5 L16.5,82.5 L16.5,82.5 L16.5,81 C16.5,78.6 18.6,76.5 21,76.5 Z" id="Shape" stroke-width="3"></path>
                    <path d="M36,70.5 L36,76.5" id="Shape" stroke-width="3"></path>
                    <path d="M21,21 L16.8,16.8 C4.8,29.4 5.7,49.5 18.3,61.2 C30.3,72.6 49.2,72.6 61.2,61.2 L57,57" id="Shape" stroke-width="3"></path>
                    <g transform="translate(38.993098, 38.993729) rotate(-45.000000) translate(-38.993098, -38.993729) translate(11.993368, 11.993999)" id="Shape" stroke-width="2.99997">
                        <path d="M45.0308697,8.96869831 C54.9891501,18.9269787 54.9891501,35.0725173 45.0308697,45.0307377 C35.0725893,54.9890181 18.9270507,54.9890181 8.96883031,45.0307377 C-0.989450105,35.0724573 -0.989450105,18.9269187 8.96883031,8.96869831 C18.9271107,-0.989582104 35.0726493,-0.989582104 45.0308697,8.96869831"></path>
                    </g>
                </g>
            </g>
        </g>
    </g>
</svg>