<?xml version="1.0" encoding="UTF-8"?>
<svg width="72px" height="72px" viewBox="0 0 72 72" version="1.1" xmlns="http://www.w3.org/2000/svg" xmlns:xlink="http://www.w3.org/1999/xlink">
    <!-- Generator: Sketch 42 (36781) - http://www.bohemiancoding.com/sketch -->
    <title>we/pingpong</title>
    <desc>Created with Sketch.</desc>
    <defs></defs>
    <g id="V12" stroke="none" stroke-width="1" fill="none" fill-rule="evenodd" stroke-linecap="round" stroke-linejoin="round">
        <g id="ucreate-v12-Final" transform="translate(-749.000000, -1676.000000)" stroke-width="3" stroke="#0EDBF2">
            <g id="we/pingpong" transform="translate(749.000000, 1676.000000)">
                <g id="Group">
                    <path d="M18,27 L45,54" id="Shape"></path>
                    <path d="M28.5,49.5 L10.5,70.5 L10.5,70.5 C6.6,68.7 3.3,65.4 1.5,61.5 L1.5,61.5 L22.5,43.5 L28.5,49.5 Z" id="Shape"></path>
                    <path d="M18.6,46.8 C14.4,38.4 16.8,25.8 22.2,16.5" id="Shape"></path>
                    <path d="M30.9,6.6 C40.8,-0.3 55.2,-0.3 63.9,8.1 C73.5,17.7 72.3,35.1 62.4,44.7 C54,53.4 36,58.8 25.2,53.4" id="Shape"></path>
                    <path d="M29.30328,3.696699 C32.232213,6.625632 32.232213,11.374359 29.30328,14.303289 C26.374347,17.232222 21.62562,17.232222 18.69669,14.303289 C15.767757,11.374356 15.767757,6.625629 18.69669,3.696699 C21.625623,0.767766 26.37435,0.767766 29.30328,3.696699" id="Shape"></path>
                </g>
            </g>
        </g>
    </g>
</svg>