<?xml version="1.0" encoding="UTF-8"?>
<svg width="60px" height="72px" viewBox="0 0 60 72" version="1.1" xmlns="http://www.w3.org/2000/svg" xmlns:xlink="http://www.w3.org/1999/xlink">
    <!-- Generator: Sketch 42 (36781) - http://www.bohemiancoding.com/sketch -->
    <title>we/travel</title>
    <desc>Created with Sketch.</desc>
    <defs></defs>
    <g id="V12" stroke="none" stroke-width="1" fill="none" fill-rule="evenodd" stroke-linecap="round" stroke-linejoin="round">
        <g id="ucreate-v12-Final" transform="translate(-467.000000, -1676.000000)" stroke-width="3" stroke="#0EDBF2">
            <g id="we/travel" transform="translate(467.000000, 1676.000000)">
                <g id="Group">
                    <path d="M58.5,37.5 L49.5,37.5 L49.5,52.5 L54,52.5 C56.4,52.5 58.5,50.4 58.5,48 L58.5,37.5 Z" id="Shape"></path>
                    <path d="M58.5,37.5 L49.5,37.5 L49.5,28.5 L54,28.5 C56.4,28.5 58.5,30.6 58.5,33 L58.5,37.5 Z" id="Shape"></path>
                    <path d="M1.5,37.5 L10.5,37.5 L10.5,52.5 L6,52.5 C3.6,52.5 1.5,50.4 1.5,48 L1.5,37.5 Z" id="Shape"></path>
                    <path d="M1.5,37.5 L10.5,37.5 L10.5,28.5 L6,28.5 C3.6,28.5 1.5,30.6 1.5,33 L1.5,37.5 Z" id="Shape"></path>
                    <path d="M9,61.5 L51,61.5 C53.4,61.5 55.5,63.6 55.5,66 L55.5,66 C55.5,68.4 53.4,70.5 51,70.5 L9,70.5 C6.6,70.5 4.5,68.4 4.5,66 L4.5,66 C4.5,63.6 6.6,61.5 9,61.5 Z" id="Shape"></path>
                    <g id="path-1-link" transform="translate(13.500000, 61.500000)">
                        <polygon id="path-1" points="0 0 6 0 6 9 0 9"></polygon>
                    </g>
                    <g id="path-1-link" transform="translate(40.500000, 61.500000)">
                        <polygon id="path-1" points="0 0 6 0 6 9 0 9"></polygon>
                    </g>
                    <polygon id="Shape" points="16.5 37.5 43.5 37.5 43.5 55.5 16.5 55.5"></polygon>
                    <path d="M30,1.5 L30,1.5 C32.4,1.5 34.5,3.6 34.5,6 L34.5,7.5 L34.5,7.5 L25.5,7.5 L25.5,7.5 L25.5,6 C25.5,3.6 27.6,1.5 30,1.5 Z" id="Shape"></path>
                    <path d="M16.5,7.5 L15,7.5 C12.6,7.5 10.5,9.6 10.5,12 L10.5,18 C10.5,20.4 12.6,22.5 15,22.5 L16.5,22.5 L16.5,7.5 Z" id="Shape"></path>
                    <polygon id="Shape" points="22.5 7.5 37.5 7.5 37.5 22.5 22.5 22.5"></polygon>
                    <path d="M45,7.5 L43.5,7.5 L43.5,22.5 L45,22.5 C47.4,22.5 49.5,20.4 49.5,18 L49.5,12 C49.5,9.6 47.4,7.5 45,7.5 Z" id="Shape"></path>
                    <path d="M45,22.5 L43.5,22.5 L43.5,28.5 L40.5,31.5 L37.5,28.5 L37.5,22.5 L22.5,22.5 L22.5,28.5 L19.5,31.5 L16.5,28.5 L16.5,22.5 L15,22.5 C12.6,22.5 10.5,24.6 10.5,27 L10.5,57 C10.5,59.4 12.3,61.5 14.7,61.5 L14.7,61.5 L45,61.5 C47.4,61.5 49.5,59.4 49.2,57 L49.2,57 L49.2,27 C49.5,24.6 47.4,22.5 45,22.5 Z" id="Shape"></path>
                    <g id="path-2-link" transform="translate(16.500000, 7.500000)">
                        <polygon id="path-2" points="6 21 3 24 0 21 0 0 6 0"></polygon>
                    </g>
                    <g id="path-2-link" transform="translate(37.500000, 7.500000)">
                        <polygon id="path-2" points="6 21 3 24 0 21 0 0 6 0"></polygon>
                    </g>
                    <path d="M16.5,37.5 C16.5,37.5 24,46.5 30,46.5 C36,46.5 43.5,37.5 43.5,37.5" id="Shape"></path>
                    <path d="M30,43.5 L30,49.5" id="Shape"></path>
                </g>
            </g>
        </g>
    </g>
</svg>