<?xml version="1.0" encoding="UTF-8"?>
<svg width="90px" height="79px" viewBox="0 0 90 79" version="1.1" xmlns="http://www.w3.org/2000/svg" xmlns:xlink="http://www.w3.org/1999/xlink">
    <!-- Generator: Sketch 42 (36781) - http://www.bohemiancoding.com/sketch -->
    <title>build/agile</title>
    <desc>Created with Sketch.</desc>
    <defs></defs>
    <g id="V12" stroke="none" stroke-width="1" fill="none" fill-rule="evenodd" stroke-linecap="round" stroke-linejoin="round">
        <g id="ucreate-v12-Final" transform="translate(-740.000000, -1076.000000)" stroke-width="3" stroke="#FFFFFF">
            <g id="build/agile" transform="translate(741.000000, 1077.000000)">
                <g id="Group">
                    <path d="M44.3,6.5 L5,6.5 C2.6,6.5 0.5,8.6 0.5,11 L0.5,68 C0.5,70.4 2.6,72.5 5,72.5 L25.4,72.5" id="Shape"></path>
                    <path d="M9.5,21.2 L9.5,21.2 C9.5,18.5 11.3,16.1 14,15.5 L64.4,1.1 C65,0.8 65.6,0.8 66.2,0.8 L66.2,0.8 C68.9,0.8 71.3,2.6 72.2,5 L87.2,53.3 C87.5,53.9 87.5,54.5 87.5,55.1 L87.5,55.1 C87.5,57.8 85.7,60.2 83,60.8 L32.6,75.5 C32,75.8 31.4,75.8 30.8,75.8 L30.8,75.8 C28.1,75.8 25.7,74 24.8,71.6 L9.8,23.3 C9.8,22.1 9.5,21.5 9.5,21.2 L9.5,21.2 Z" id="Shape"></path>
                    <path d="M30.5,6.5 L30.5,6.5 C30.5,3.2 33.2,0.5 36.5,0.5 L36.5,0.5 C39.8,0.5 42.5,3.2 42.5,6.5 L42.5,17 C42.5,19.4 40.4,21.5 38,21.5 L38,21.5 C35.6,21.5 33.5,19.4 33.5,17 L33.5,6.5" id="Shape"></path>
                </g>
            </g>
        </g>
    </g>
</svg>