<svg xmlns="http://www.w3.org/2000/svg" width="22" height="22" viewBox="0 0 22 22">
  <path d="M20,0 L2,0 L1.99999991,3.55271003e-15 C0.895429913,4.82823036e-08 -8.74228001e-08,0.895431 -8.74228001e-08,2 L-8.74228001e-08,2 L-8.74228001e-08,20 L-8.74227788e-08,19.9999997 C-2.54207779e-07,21.1045697 0.895429913,21.9999997 1.99999991,21.9999997 L19.9999999,21.9999997 L19.9999998,21.9999997 C21.1045698,21.9999997 21.9999998,21.1045697 21.9999998,19.9999997 L21.9999998,1.9999997 L21.9999998,1.9999997 C21.9999998,0.895429698 21.1045688,-3.01991999e-07 19.9999998,-3.01991999e-07 L20,0 Z M7,18.5 L7,18.5 C7,18.776142 6.776142,19 6.5,19 L3.5,19 L3.49999998,19 C3.22385798,19 2.99999998,18.776142 2.99999998,18.5 L2.99999998,18.5 L2.99999998,8.5 L2.99999998,8.50000008 C2.99999994,8.22385808 3.22385798,8.00000008 3.49999998,8.00000008 L6.49999998,8.00000008 L6.49999996,8.00000008 C6.77614196,8.00000006 6.99999996,8.22385808 6.99999996,8.50000008 L7,18.5 Z M5,7 L4.99999991,7 C3.89542991,6.99999995 2.99999991,6.104569 2.99999991,5 C2.99999996,3.89543 3.89543091,3 4.99999991,3 C6.10456991,3.00000005 6.99999991,3.895431 6.99999991,5 L6.99999991,4.99999991 C6.99999991,6.10456991 6.10456991,6.99999991 4.99999991,6.99999991 L5,7 Z M19,18.5 L19,18.5 C19,18.776142 18.776142,19 18.5,19 L15.5,19 L15.5,19 C15.223858,19 15,18.776142 15,18.5 L15,18.5 L15,13 C15,11.75 14.44,11 13.5,11 C12.56,11 12,11.75 12,13 L12,18.5 L12,18.5 C12,18.776142 11.776142,19 11.5,19 L8.49999998,19 L8.49999996,19 C8.22385796,19 7.99999996,18.776142 7.99999996,18.5 L7.99999996,18.5 L7.99999996,8.5 L7.99999996,8.50000008 C7.99999991,8.22385808 8.22385796,8.00000008 8.49999996,8.00000008 L11.5,8.00000008 L11.4999999,8.00000008 C11.7761419,8.00000006 11.9999999,8.22385808 11.9999999,8.50000008 L11.9999999,8.81000008 L12.0000001,8.80999991 C12.7117251,8.25360791 13.5972201,7.96670791 14.5000001,7.99999991 C17.2300001,7.99999991 19.0000001,9.99999991 19.0000001,12.9999999 L19,18.5 Z"/>
</svg>
