<svg xmlns="http://www.w3.org/2000/svg" width="27" height="22" viewBox="0 0 27 22">
  <g fill-rule="evenodd">
    <path d="M26.110865,4.03588493 C26.1058838,4.03192987 26.101899,4.02673887 26.0956725,4.02377256 L26.0867065,4.01932312 L18.2240165,0.117414116 C18.1709674,0.0909646705 18.1151786,0.0731669455 18.058643,0.0588297655 C17.9876617,0.0407848155 17.9151865,0.0296612305 17.8424617,0.0296612305 C17.5413521,0.0296612305 17.2417352,0.179706181 17.0793532,0.441234481 L12.5527487,7.74226448 L18.2334787,16.9041645 L26.1350537,4.16049948 C26.1612046,4.11798261 26.1487518,4.06557828 26.1108952,4.03591513"/>
    <polyline points="10.059 6.079 10.059 14.39 17.502 18.084 10.059 6.079"/>
    <path d="M18.62047 18.638455L24.74703 21.678657C25.5442605 22.0744101 26.19056 21.7973085 26.19056 21.0601875L26.19056 6.4291975 18.62047 18.6384825M8.76726345 4.0477536L1.08810845.2368091C.94938415.1680899.81738415.1354606.6978367.1354606.36161015.1354606.1257542.39377525.1257542.8271021L.1257542 17.2826071C.1257542 17.7231015.45052425 18.2446726.8475192 18.4416881L7.6111442 21.7980466C7.7844877 21.8840693 7.949612 21.9248557 8.09879675 21.9248557 8.5192041 21.9248557 8.81408825 21.6020244 8.81408825 21.0601842L8.81408825 4.1226592C8.81408825 4.09101874 8.79590712 4.0618501 8.76726559 4.0477602"/>
  </g>
</svg>
