<svg xmlns="http://www.w3.org/2000/svg" width="24" height="20" viewBox="0 0 24 20">
  <path d="M24.8699558,2.43 L24.8699558,2.43000004 C24.7155628,2.26485504 24.4695638,2.22385504 24.2699558,2.33000004 L24.2699558,2.33000007 C24.0279448,2.44081107 23.7770658,2.53112707 23.5199578,2.60000007 L23.5199578,2.60000007 C23.9012758,2.12479207 24.1896388,1.58199007 24.3699558,1.00000007 L24.3699558,0.999999987 C24.4355045,0.731749987 24.2711828,0.461152987 24.0029328,0.395603987 C23.8641468,0.361690787 23.7174838,0.388767207 23.5999558,0.469999887 L23.599956,0.469999753 C22.803123,0.910718753 21.952776,1.24682475 21.069956,1.46999975 L21.0699561,1.46999978 C20.1216261,0.526498783 18.8376861,-0.00218021659 17.4999561,-2.16586621e-07 L17.4999562,-2.20480531e-07 C16.4326862,0.0234671795 15.3933562,0.34565678 14.4999562,0.92999978 C12.5999562,1.99999978 12.2699562,4.46999978 12.4099562,5.99999978 L12.4099563,5.99999978 C8.88756628,5.70293878 5.63802628,3.98428978 3.40995628,1.23999978 L3.40995628,1.23999979 C3.31880588,1.09979779 3.16683228,1.01083779 2.99995628,0.999999793 L2.99995629,0.999999792 C2.83322229,1.01125179 2.68313329,1.10505779 2.59995629,1.24999979 L2.59995646,1.2499995 C1.56979646,3.0338995 1.65536346,5.2508095 2.81995646,6.9499995 C2.66995646,6.8499995 2.50995646,6.7299995 2.34995646,6.5999995 L2.34995646,6.5999995 C2.15385246,6.4055835 1.83727246,6.4069515 1.64285646,6.60305604 C1.53900146,6.70781304 1.48670346,6.85308404 1.49995646,7.00000004 L1.4999564,6.99999605 C1.5302865,8.86088605 2.4625234,10.591126 3.9999564,11.639996 L3.6099564,11.529996 L3.60995637,11.529996 C3.34628737,11.4479405 3.06602137,11.5951676 2.98396637,11.858837 C2.94908867,11.97091 2.95475037,12.09168 2.99995977,12.199998 L2.99995933,12.199997 C3.78479933,13.972687 5.32209933,15.300857 7.18995933,15.819997 L7.18995916,15.8199971 C5.48715916,16.8036691 3.51444916,17.2171371 1.55995916,16.9999971 L1.55995917,16.9999971 C1.28590217,16.9661282 1.03627817,17.1608391 1.00240917,17.4348971 C0.977714474,17.6347201 1.07528427,17.8298591 1.24995917,17.9299971 L1.24995697,17.9299958 C3.60132697,19.3015158 6.27787697,20.0164058 8.99995697,19.9999958 L8.99995952,19.9999958 L8.99995994,19.9999958 C12.8444799,19.9686052 16.4888299,18.2812758 18.9999599,15.3699958 L18.99996,15.3699958 C21.50147,12.6889258 22.8172,9.1130158 22.64996,5.4499958 L22.6499604,5.4499955 C23.5411094,4.7690895 24.3089004,3.9404155 24.9199604,2.9999955 L24.9199604,2.99999551 C25.0244004,2.81829351 25.0044396,2.59073951 24.8699601,2.42999551 L24.8699558,2.43 Z" transform="translate(-1)"/>
</svg>
