<?xml version="1.0" encoding="UTF-8"?>
<svg width="126px" height="23px" viewBox="0 0 126 23" version="1.1" xmlns="http://www.w3.org/2000/svg" xmlns:xlink="http://www.w3.org/1999/xlink">
    <!-- Generator: Sketch 42 (36781) - http://www.bohemiancoding.com/sketch -->
    <title>logo_inverse</title>
    <desc>Created with Sketch.</desc>
    <defs></defs>
    <g id="V12" stroke="none" stroke-width="1" fill="none" fill-rule="evenodd">
        <g id="ucreate-v12-Final" transform="translate(-78.000000, -5277.000000)">
            <g id="logo_inverse" transform="translate(78.000000, 5277.000000)">
                <path d="M0.290861569,14 C0.0196868946,14 -0.0797224869,13.8126782 0.0692085097,13.5810078 L8.53050426,0.418992192 C8.67926333,0.187589194 8.79985639,0.222473145 8.79985639,0.509665847 L8.79985639,8.49033415 C8.79985639,8.77181483 9.02773686,9 9.29086157,9 L14.3088512,9 C14.5800259,9 14.6794353,9.18732175 14.5305043,9.41899219 L6.06920851,22.5810078 C5.92044944,22.8124108 5.79985639,22.7775269 5.79985639,22.4903342 L5.79985639,14.5096658 C5.79985639,14.2281852 5.57197591,14 5.3088512,14 L0.290861569,14 Z" id="_Path_" fill="#0EDBF2"></path>
                <path d="M29.0407474,5.6682358 C28.7686616,5.6682358 28.5480925,5.90074692 28.5480925,6.17081249 L28.5480925,12.6564717 C28.5480925,14.9082366 27.3316218,15.8658838 25.7010334,15.8658838 C24.1998568,15.8658838 23.1386802,14.9600013 23.1386802,13.2000012 L23.1386802,6.16241596 C23.1386802,5.8894878 22.9196107,5.6682358 22.6460253,5.6682358 L20.2925113,5.6682358 C20.0204255,5.6682358 19.7998564,5.89747136 19.7998564,6.16528637 L19.7998564,13.6141189 C19.7998564,17.0564721 21.9480919,18.9717664 24.6916215,18.9717664 C26.4257393,18.9717664 27.7716218,18.3247075 28.5480925,17.1600015 L28.5480925,18.1187087 C28.5480925,18.3897174 28.767162,18.6094134 29.0407474,18.6094134 L31.3942613,18.6094134 C31.6663472,18.6094134 31.8869163,18.3847951 31.8869163,18.1179065 L31.8869163,6.15974276 C31.8869163,5.88829096 31.6678467,5.6682358 31.3942613,5.6682358 L29.0407474,5.6682358 Z M40.2382895,18.9717664 C42.7747603,18.9717664 44.9747605,17.6258839 46.0877018,15.6070602 L43.188878,13.9505895 C42.6712309,15.011766 41.5582896,15.6588249 40.2124071,15.6588249 C38.2194658,15.6588249 36.7441715,14.1835307 36.7441715,12.1388246 C36.7441715,10.0682362 38.2194658,8.59294194 40.2124071,8.59294194 C41.5324072,8.59294194 42.6453485,9.26588318 43.1629956,10.3270597 L46.0359371,8.64470666 C44.9747605,6.6517653 42.7747603,5.30588283 40.2382895,5.30588283 C36.3041715,5.30588283 33.4053477,8.28235368 33.4053477,12.1388246 C33.4053477,15.9952955 36.3041715,18.9717664 40.2382895,18.9717664 Z M50.4273099,7.89411835 C51.1002511,6.1341182 52.7308395,5.40941225 54.3614279,5.40941225 L54.3614279,9.13647141 C52.6273101,8.92941256 50.4273099,9.70588322 50.4273099,12.4235305 L50.4273099,18.1031967 C50.4273099,18.3827725 50.2082403,18.6094134 49.9346549,18.6094134 L47.581141,18.6094134 C47.3090552,18.6094134 47.0884861,18.3847951 47.0884861,18.1179065 L47.0884861,6.15974276 C47.0884861,5.88829096 47.3075556,5.6682358 47.581141,5.6682358 L49.9346549,5.6682358 C50.2067408,5.6682358 50.4273099,5.88979961 50.4273099,6.16223128 L50.4273099,7.89411835 Z M57.7692712,13.5105894 C58.2351536,15.2188249 59.6586832,15.9435308 61.4186833,15.9435308 C62.7128011,15.9435308 63.7480953,15.4000014 64.3175071,14.6494131 L67.0092721,16.2023544 C65.7928014,17.9623545 63.8516247,18.9717664 61.3669186,18.9717664 C57.0186829,18.9717664 54.2751533,15.9952955 54.2751533,12.1388246 C54.2751533,8.28235368 57.0445653,5.30588283 61.1080951,5.30588283 C64.9386836,5.30588283 67.6563309,8.33411839 67.6563309,12.1388246 C67.6563309,12.6305894 67.6045662,13.0705894 67.5269192,13.5105894 L57.7692712,13.5105894 Z M57.7175065,10.9223539 L64.3175071,10.9223539 C63.9033894,9.05882434 62.5057422,8.30823604 61.1080951,8.30823604 C59.3222126,8.30823604 58.1057419,9.26588318 57.7175065,10.9223539 Z M78.8547632,6.16825202 C78.8547632,5.89210069 79.0738328,5.6682358 79.3474182,5.6682358 L81.7009321,5.6682358 C81.9730179,5.6682358 82.193587,5.89285417 82.193587,6.15974276 L82.193587,18.1179065 C82.193587,18.3893583 81.9745175,18.6094134 81.7009321,18.6094134 L79.3474182,18.6094134 C79.0753324,18.6094134 78.8547632,18.3840906 78.8547632,18.1093972 L78.8547632,17.0823545 C77.9229984,18.2470605 76.5253512,18.9717664 74.6359393,18.9717664 C71.1935861,18.9717664 68.346527,15.9952955 68.346527,12.1388246 C68.346527,8.28235368 71.1935861,5.30588283 74.6359393,5.30588283 C76.5253512,5.30588283 77.9229984,6.03058877 78.8547632,7.19529476 L78.8547632,6.16825202 Z M75.2571158,15.7882367 C77.3277043,15.7882367 78.8547632,14.3129425 78.8547632,12.1388246 C78.8547632,9.96470677 77.3277043,8.48941252 75.2571158,8.48941252 C73.2124098,8.48941252 71.6853508,9.96470677 71.6853508,12.1388246 C71.6853508,14.3129425 73.2124098,15.7882367 75.2571158,15.7882367 Z M91.251986,8.87764785 C91.5333447,8.87764785 91.7614309,8.64683485 91.7614309,8.37617722 L91.7614309,6.16970643 C91.7614309,5.89275185 91.5319341,5.6682358 91.251986,5.6682358 L89.3461697,5.6682358 C89.0648111,5.6682358 88.8367248,5.45241901 88.8367248,5.16439952 L88.8367248,2.54854235 C88.8367248,2.27028125 88.6176552,2.1109364 88.3583527,2.18933017 L85.976273,2.90949381 C85.7120754,2.9893675 85.497901,3.27699614 85.497901,3.55814614 L85.497901,5.16420758 C85.497901,5.44257468 85.2737608,5.6682358 84.9981613,5.6682358 L83.7458757,5.6682358 C83.4698771,5.6682358 83.2461361,5.8990488 83.2461361,6.16970643 L83.2461361,8.37617722 C83.2461361,8.6531318 83.4702762,8.87764785 83.7458757,8.87764785 L84.9981613,8.87764785 C85.2741599,8.87764785 85.497901,9.1089714 85.497901,9.37446775 L85.497901,14.2611777 C85.497901,17.7552957 87.0767246,19.1270605 91.7614309,18.6094134 L91.7614309,15.5811779 C89.8461366,15.6847073 88.8367248,15.6588249 88.8367248,14.2611777 L88.8367248,9.37446775 C88.8367248,9.1000817 89.0662216,8.87764785 89.3461697,8.87764785 L91.251986,8.87764785 Z M95.6869214,13.5105894 C96.1528038,15.2188249 97.5763333,15.9435308 99.3363335,15.9435308 C100.630451,15.9435308 101.665745,15.4000014 102.235157,14.6494131 L104.926922,16.2023544 C103.710452,17.9623545 101.769275,18.9717664 99.2845688,18.9717664 C94.9363331,18.9717664 92.1928034,15.9952955 92.1928034,12.1388246 C92.1928034,8.28235368 94.9622154,5.30588283 99.0257452,5.30588283 C102.856334,5.30588283 105.573981,8.33411839 105.573981,12.1388246 C105.573981,12.6305894 105.522216,13.0705894 105.444569,13.5105894 L95.6869214,13.5105894 Z M95.6351567,10.9223539 L102.235157,10.9223539 C101.82104,9.05882434 100.423392,8.30823604 99.0257452,8.30823604 C97.2398627,8.30823604 96.023392,9.26588318 95.6351567,10.9223539 Z M107.94653,18.945884 C109.163001,18.945884 110.14653,17.9623545 110.14653,16.7458839 C110.14653,15.5294132 109.163001,14.5458837 107.94653,14.5458837 C106.73006,14.5458837 105.74653,15.5294132 105.74653,16.7458839 C105.74653,17.9623545 106.73006,18.945884 107.94653,18.945884 Z M113.73555,4.11529449 C114.874374,4.11529449 115.806139,3.1835297 115.806139,2.07058842 C115.806139,0.957647144 114.874374,0 113.73555,0 C112.622609,0 111.690844,0.957647144 111.690844,2.07058842 C111.690844,3.1835297 112.622609,4.11529449 113.73555,4.11529449 Z M112.07908,18.1179065 C112.07908,18.3893583 112.298149,18.6094134 112.571734,18.6094134 L114.925248,18.6094134 C115.197334,18.6094134 115.417903,18.3847951 115.417903,18.1179065 L115.417903,6.15974276 C115.417903,5.88829096 115.198834,5.6682358 114.925248,5.6682358 L112.571734,5.6682358 C112.299649,5.6682358 112.07908,5.89285417 112.07908,6.15974276 L112.07908,18.1179065 Z M124.502185,8.87764785 C124.783543,8.87764785 125.01163,8.64683485 125.01163,8.37617722 L125.01163,6.16970643 C125.01163,5.89275185 124.782133,5.6682358 124.502185,5.6682358 L122.596368,5.6682358 C122.31501,5.6682358 122.086923,5.45241901 122.086923,5.16439952 L122.086923,2.54854235 C122.086923,2.27028125 121.867854,2.1109364 121.608551,2.18933017 L119.226472,2.90949381 C118.962274,2.9893675 118.7481,3.27699614 118.7481,3.55814614 L118.7481,5.16420758 C118.7481,5.44257468 118.523959,5.6682358 118.24836,5.6682358 L116.996074,5.6682358 C116.720076,5.6682358 116.496335,5.8990488 116.496335,6.16970643 L116.496335,8.37617722 C116.496335,8.6531318 116.720475,8.87764785 116.996074,8.87764785 L118.24836,8.87764785 C118.524359,8.87764785 118.7481,9.1089714 118.7481,9.37446775 L118.7481,14.2611777 C118.7481,17.7552957 120.326923,19.1270605 125.01163,18.6094134 L125.01163,15.5811779 C123.096335,15.6847073 122.086923,15.6588249 122.086923,14.2611777 L122.086923,9.37446775 C122.086923,9.1000817 122.31642,8.87764785 122.596368,8.87764785 L124.502185,8.87764785 Z" id="ucreate.it" fill="#FFFFFF"></path>
            </g>
        </g>
    </g>
</svg>